<svg xmlns:xlink="http://www.w3.org/1999/xlink" width="57" height="56" fill="none" xmlns="http://www.w3.org/2000/svg" id="svg-1370656206_898"><rect x=".333" width="56" height="56" rx="28" fill="#D43B51" fill-opacity="0.04"></rect><path d="M32.084 25.75v-6a3 3 0 0 0-3-3h-8.25a3 3 0 0 0-3 3v16.5a3 3 0 0 0 3 3h6" stroke="#D43B51" stroke-width="1.5px" stroke-linecap="round" stroke-linejoin="round" fill="none"></path><path d="M38.833 34a5.25 5.25 0 1 1-5.25-5.25" stroke="#D43B51" stroke-width="1.5px" stroke-linecap="round" stroke-linejoin="round" fill="none"></path><path d="m38.833 30.062-4.785 4.786a.658.658 0 0 1-.929 0l-1.5-1.5M17.833 35.5h7.501" stroke="#D43B51" stroke-width="1.5px" stroke-linecap="round" stroke-linejoin="round" fill="none"></path><path clip-rule="evenodd" d="M25.087 22.9a1.575 1.575 0 1 0 0-3.15 1.575 1.575 0 0 0 0 3.15Zm2.759 3.545a2.756 2.756 0 1 0-5.513 0v1.181h1.182l.393 3.938h2.363l.394-3.938h1.18v-1.181Z" stroke="#D43B51" stroke-width="1.5px" stroke-linecap="round" stroke-linejoin="round" fill="none"></path></svg>