<svg xmlns:xlink="http://www.w3.org/1999/xlink" width="57" height="56" fill="none" xmlns="http://www.w3.org/2000/svg" id="svg218840947_782"><rect x=".667" width="56" height="56" rx="28" fill="#D43B51" fill-opacity="0.04"></rect><path clip-rule="evenodd" d="M33.917 39.25a6 6 0 1 0 0-12 6 6 0 0 0 0 12Z" stroke="#D43B51" stroke-width="1.5px" stroke-linecap="round" stroke-linejoin="round" fill="none"></path><path d="m36.59 31.506-2.904 3.873a.752.752 0 0 1-1.131.081l-1.5-1.5m-6.138-.71h-6a1.5 1.5 0 0 1-1.5-1.5V19.765a1.5 1.5 0 0 1 1.5-1.5h13.5a1.5 1.5 0 0 1 1.5 1.5v4.485" stroke="#D43B51" stroke-width="1.5px" stroke-linecap="round" stroke-linejoin="round" fill="none"></path><path d="M17.417 22.75h16.5" stroke="#D43B51" stroke-width="1.5px" stroke-linejoin="round" fill="none"></path><path d="M21.91 19.75v-3m7.5 3v-3" stroke="#D43B51" stroke-width="1.5px" stroke-linecap="round" stroke-linejoin="round" fill="none"></path></svg>