<svg xmlns:xlink="http://www.w3.org/1999/xlink" width="56" height="56" fill="none" xmlns="http://www.w3.org/2000/svg" id="svg-1886651520_969"><rect width="56" height="56" rx="28" fill="#D43B51" fill-opacity="0.04"></rect><path clip-rule="evenodd" d="M18.991 18.25a1.5 1.5 0 0 1 1.5-1.5h9a1.5 1.5 0 0 1 1.5 1.5v6a1.5 1.5 0 0 1-1.5 1.5h-9a1.5 1.5 0 0 1-1.5-1.5v-6ZM37.95 31.335a.751.751 0 0 1-.672.415H18.705a.75.75 0 0 1-.67-.415l-.75-1.5a.75.75 0 0 1 .67-1.085h20.073a.75.75 0 0 1 .671 1.085l-.75 1.5Z" stroke="#D43B51" stroke-width="1.5px" stroke-linecap="round" stroke-linejoin="round" fill="none"></path><path d="m21.241 31.75-2.25 7.5h1.5l4.5-7.5m9.75 0 2.25 7.5h-1.5l-4.5-7.5m-12-9h12m-7.5 3-.75 3m3.75-3 .75 3" stroke="#D43B51" stroke-width="1.5px" stroke-linecap="round" stroke-linejoin="round" fill="none"></path><path clip-rule="evenodd" d="M33.991 25.75h3v3h-3v-3Z" stroke="#D43B51" stroke-width="1.5px" stroke-linecap="round" stroke-linejoin="round" fill="none"></path><path d="m35.491 25.75 1.5-3.75" stroke="#D43B51" stroke-width="1.5px" stroke-linecap="round" stroke-linejoin="round" fill="none"></path></svg>