<svg xmlns="http://www.w3.org/2000/svg" xmlns:xlink="http://www.w3.org/1999/xlink" viewBox="0 0 102 32"><g id="ss2089917462_1"><path d="M 0 32 L 0 0 L 102 0 L 102 32 Z" fill="transparent"></path><path d="M 29.386 22.71 C 29.243 22.307 29.075 21.918 28.916 21.556 C 28.67 21.001 28.413 20.445 28.164 19.907 L 28.144 19.864 C 25.925 15.059 23.544 10.188 21.066 5.387 L 20.961 5.183 C 20.708 4.693 20.447 4.186 20.178 3.688 C 19.86 3.057 19.474 2.464 19.028 1.917 C 18.524 1.317 17.896 0.834 17.185 0.503 C 16.475 0.171 15.7 -0 14.916 0 C 14.132 0 13.358 0.172 12.648 0.503 C 11.938 0.835 11.309 1.317 10.806 1.918 C 10.359 2.465 9.974 3.059 9.656 3.689 C 9.385 4.191 9.121 4.703 8.866 5.198 L 8.769 5.387 C 6.291 10.188 3.909 15.059 1.69 19.864 L 1.658 19.934 C 1.413 20.463 1.161 21.01 0.919 21.556 C 0.759 21.917 0.592 22.306 0.448 22.71 C 0.037 23.81 -0.094 24.995 0.067 26.159 C 0.238 27.334 0.713 28.445 1.446 29.38 C 2.179 30.316 3.144 31.044 4.246 31.493 C 5.078 31.83 5.968 32.002 6.866 32 C 7.148 32 7.43 31.983 7.71 31.951 C 8.846 31.806 9.941 31.437 10.932 30.864 C 12.232 30.134 13.515 29.064 14.917 27.535 C 16.319 29.064 17.603 30.134 18.902 30.864 C 19.893 31.437 20.989 31.806 22.124 31.951 C 22.404 31.983 22.686 32 22.968 32 C 23.866 32.002 24.756 31.83 25.588 31.493 C 26.69 31.044 27.655 30.316 28.389 29.38 C 29.122 28.445 29.597 27.334 29.768 26.159 C 29.929 24.995 29.798 23.81 29.386 22.71 Z M 14.917 24.377 C 13.182 22.177 12.068 20.134 11.677 18.421 C 11.517 17.779 11.479 17.113 11.566 16.457 C 11.634 15.977 11.811 15.518 12.082 15.115 C 12.416 14.681 12.846 14.33 13.337 14.089 C 13.829 13.847 14.37 13.722 14.918 13.722 C 15.466 13.722 16.006 13.848 16.498 14.089 C 16.989 14.331 17.419 14.682 17.753 15.115 C 18.024 15.518 18.201 15.977 18.269 16.458 C 18.356 17.114 18.318 17.78 18.157 18.422 C 17.766 20.135 16.653 22.177 14.917 24.377 Z M 27.741 25.869 C 27.621 26.691 27.289 27.467 26.776 28.122 C 26.264 28.776 25.589 29.285 24.818 29.599 C 24.039 29.911 23.194 30.022 22.361 29.92 C 21.495 29.809 20.66 29.524 19.907 29.082 C 18.75 28.432 17.579 27.435 16.261 25.971 C 18.359 23.385 19.669 21 20.154 18.877 C 20.372 17.984 20.42 17.058 20.293 16.147 C 20.179 15.363 19.888 14.615 19.442 13.959 C 18.919 13.252 18.238 12.677 17.452 12.28 C 16.666 11.884 15.798 11.678 14.917 11.678 C 14.037 11.678 13.169 11.884 12.383 12.28 C 11.597 12.676 10.915 13.251 10.393 13.959 C 9.947 14.614 9.656 15.362 9.541 16.146 C 9.415 17.057 9.462 17.982 9.68 18.875 C 10.165 20.999 11.475 23.384 13.573 25.971 C 12.255 27.435 11.084 28.432 9.928 29.082 C 9.175 29.524 8.34 29.809 7.474 29.92 C 6.641 30.022 5.795 29.911 5.016 29.599 C 4.246 29.285 3.571 28.776 3.058 28.122 C 2.546 27.467 2.213 26.691 2.094 25.869 C 1.979 25.033 2.077 24.182 2.378 23.395 C 2.493 23.073 2.627 22.757 2.793 22.382 C 3.027 21.851 3.277 21.311 3.518 20.79 L 3.55 20.72 C 5.756 15.942 8.125 11.098 10.589 6.323 L 10.687 6.133 C 10.938 5.646 11.198 5.143 11.46 4.656 C 11.71 4.155 12.013 3.682 12.364 3.244 C 12.675 2.869 13.065 2.567 13.506 2.359 C 13.947 2.152 14.429 2.044 14.917 2.044 C 15.405 2.044 15.887 2.152 16.328 2.359 C 16.769 2.567 17.159 2.869 17.47 3.244 C 17.821 3.681 18.124 4.154 18.374 4.655 C 18.634 5.137 18.891 5.636 19.14 6.119 L 19.245 6.323 C 21.71 11.098 24.078 15.941 26.285 20.72 L 26.305 20.763 C 26.55 21.294 26.803 21.842 27.042 22.382 C 27.208 22.758 27.342 23.074 27.457 23.394 C 27.758 24.182 27.855 25.033 27.741 25.869 Z" fill="rgb(255,56,92)"></path><path d="M 41.685 24.12 C 40.886 24.12 40.151 23.959 39.479 23.639 C 38.808 23.319 38.233 22.87 37.721 22.294 C 37.21 21.717 36.826 21.045 36.539 20.308 C 36.251 19.539 36.123 18.706 36.123 17.809 C 36.123 16.912 36.283 16.048 36.571 15.279 C 36.858 14.51 37.274 13.837 37.785 13.229 C 38.297 12.652 38.904 12.172 39.607 11.851 C 40.31 11.531 41.045 11.371 41.877 11.371 C 42.676 11.371 43.379 11.531 44.018 11.883 C 44.657 12.204 45.169 12.684 45.584 13.293 L 45.68 11.723 L 48.621 11.723 L 48.621 23.799 L 45.68 23.799 L 45.584 22.038 C 45.169 22.678 44.625 23.191 43.922 23.575 C 43.283 23.927 42.516 24.12 41.685 24.12 Z M 42.452 21.237 C 43.027 21.237 43.539 21.076 44.018 20.788 C 44.466 20.468 44.817 20.051 45.105 19.539 C 45.361 19.026 45.488 18.418 45.488 17.745 C 45.488 17.072 45.361 16.464 45.105 15.951 C 44.849 15.439 44.466 15.022 44.018 14.702 C 43.571 14.382 43.027 14.254 42.452 14.254 C 41.876 14.254 41.365 14.414 40.886 14.702 C 40.438 15.022 40.087 15.439 39.799 15.951 C 39.543 16.464 39.415 17.072 39.415 17.745 C 39.415 18.418 39.543 19.026 39.799 19.539 C 40.055 20.051 40.438 20.468 40.886 20.788 C 41.365 21.076 41.876 21.237 42.452 21.237 Z M 53.639 8.456 C 53.639 8.808 53.575 9.129 53.415 9.385 C 53.256 9.641 53.032 9.865 52.744 10.025 C 52.457 10.186 52.137 10.25 51.817 10.25 C 51.498 10.25 51.178 10.186 50.89 10.025 C 50.603 9.865 50.379 9.641 50.219 9.385 C 50.059 9.097 49.995 8.808 49.995 8.456 C 49.995 8.104 50.059 7.783 50.219 7.527 C 50.379 7.239 50.603 7.046 50.89 6.886 C 51.178 6.726 51.498 6.662 51.817 6.662 C 52.137 6.662 52.457 6.726 52.744 6.886 C 53.032 7.046 53.256 7.271 53.415 7.527 C 53.543 7.783 53.639 8.072 53.639 8.456 Z M 50.219 23.767 L 50.219 11.691 L 53.415 11.691 L 53.415 23.767 Z M 61.95 14.862 L 61.95 14.894 C 61.79 14.83 61.598 14.798 61.438 14.766 C 61.247 14.734 61.087 14.734 60.895 14.734 C 60 14.734 59.329 14.99 58.881 15.535 C 58.402 16.079 58.178 16.848 58.178 17.841 L 58.178 23.767 L 54.982 23.767 L 54.982 11.691 L 57.922 11.691 L 58.018 13.517 C 58.338 12.876 58.721 12.396 59.265 12.043 C 59.776 11.691 60.383 11.531 61.087 11.531 C 61.31 11.531 61.534 11.563 61.726 11.595 C 61.822 11.627 61.886 11.627 61.95 11.659 Z M 63.228 23.767 L 63.228 6.726 L 66.425 6.726 L 66.425 13.229 C 66.872 12.652 67.384 12.204 68.023 11.851 C 68.662 11.531 69.365 11.339 70.165 11.339 C 70.964 11.339 71.699 11.499 72.37 11.819 C 73.041 12.14 73.617 12.588 74.128 13.165 C 74.639 13.741 75.023 14.414 75.311 15.151 C 75.598 15.919 75.726 16.752 75.726 17.649 C 75.726 18.546 75.566 19.411 75.279 20.18 C 74.991 20.948 74.576 21.621 74.064 22.23 C 73.553 22.806 72.945 23.287 72.242 23.607 C 71.539 23.927 70.804 24.088 69.973 24.088 C 69.174 24.088 68.47 23.927 67.831 23.575 C 67.192 23.255 66.68 22.774 66.265 22.166 L 66.169 23.735 Z M 69.397 21.237 C 69.973 21.237 70.484 21.076 70.964 20.788 C 71.411 20.468 71.763 20.051 72.05 19.539 C 72.306 19.026 72.434 18.418 72.434 17.745 C 72.434 17.072 72.306 16.464 72.05 15.951 C 71.763 15.439 71.411 15.022 70.964 14.702 C 70.516 14.382 69.973 14.254 69.397 14.254 C 68.822 14.254 68.311 14.414 67.831 14.702 C 67.384 15.022 67.032 15.439 66.744 15.951 C 66.489 16.464 66.361 17.072 66.361 17.745 C 66.361 18.418 66.489 19.026 66.744 19.539 C 67 20.051 67.384 20.468 67.831 20.788 C 68.311 21.076 68.822 21.237 69.397 21.237 Z M 76.941 23.767 L 76.941 11.691 L 79.881 11.691 L 79.977 13.261 C 80.329 12.684 80.808 12.236 81.416 11.883 C 82.023 11.531 82.726 11.371 83.525 11.371 C 84.42 11.371 85.187 11.595 85.827 12.012 C 86.498 12.428 87.009 13.037 87.361 13.805 C 87.713 14.574 87.904 15.503 87.904 16.56 L 87.904 23.799 L 84.708 23.799 L 84.708 16.976 C 84.708 16.144 84.516 15.471 84.133 14.99 C 83.749 14.51 83.238 14.254 82.566 14.254 C 82.087 14.254 81.671 14.35 81.288 14.574 C 80.936 14.798 80.649 15.087 80.425 15.503 C 80.201 15.887 80.105 16.368 80.105 16.848 L 80.105 23.767 Z M 89.503 23.767 L 89.503 6.726 L 92.699 6.726 L 92.699 13.229 C 93.146 12.652 93.658 12.204 94.297 11.851 C 94.936 11.531 95.64 11.339 96.439 11.339 C 97.238 11.339 97.973 11.499 98.644 11.819 C 99.315 12.14 99.891 12.588 100.402 13.165 C 100.914 13.741 101.297 14.414 101.585 15.151 C 101.873 15.919 102 16.752 102 17.649 C 102 18.546 101.841 19.411 101.553 20.18 C 101.265 20.948 100.85 21.621 100.338 22.23 C 99.827 22.806 99.22 23.287 98.516 23.607 C 97.813 23.927 97.078 24.088 96.247 24.088 C 95.448 24.088 94.745 23.927 94.105 23.575 C 93.466 23.255 92.955 22.774 92.539 22.166 L 92.443 23.735 Z M 95.703 21.237 C 96.279 21.237 96.79 21.076 97.27 20.788 C 97.717 20.468 98.069 20.051 98.356 19.539 C 98.612 19.026 98.74 18.418 98.74 17.745 C 98.74 17.072 98.612 16.464 98.356 15.951 C 98.101 15.439 97.717 15.022 97.27 14.702 C 96.822 14.382 96.279 14.254 95.703 14.254 C 95.128 14.254 94.617 14.414 94.137 14.702 C 93.69 15.022 93.338 15.439 93.05 15.951 C 92.763 16.464 92.667 17.072 92.667 17.745 C 92.667 18.418 92.795 19.026 93.05 19.539 C 93.306 20.051 93.69 20.468 94.137 20.788 C 94.617 21.076 95.096 21.237 95.703 21.237 Z" fill="#FF385C"></path></g></svg>