<svg xmlns="http://www.w3.org/2000/svg" xmlns:xlink="http://www.w3.org/1999/xlink" style="width: 100%; height: 100%" viewBox="0 0 19 20" preserveAspectRatio="none" width="19" height="20"><defs><svg width="19" height="20" viewBox="0 0 19 20" fill="none" xmlns="http://www.w3.org/2000/svg" id="svg1712979525_1444">
<path fill-rule="evenodd" clip-rule="evenodd" d="M4.95483 5.62329C6.33555 5.62329 7.45483 4.504 7.45483 3.12329C7.45483 1.74258 6.33555 0.623291 4.95483 0.623291C3.57412 0.623291 2.45483 1.74258 2.45483 3.12329C2.45483 4.504 3.57412 5.62329 4.95483 5.62329Z" stroke="#111111" stroke-width="1.5px" stroke-linecap="round" stroke-linejoin="round" fill="none"></path>
<path fill-rule="evenodd" clip-rule="evenodd" d="M9.33325 11.25C9.33325 8.83375 7.3745 6.875 4.95825 6.875C2.54201 6.875 0.583252 8.83375 0.583252 11.25V13.125H2.45825L3.08325 19.375H6.83325L7.45825 13.125H9.33325V11.25Z" stroke="#111111" stroke-width="1.5px" stroke-linecap="round" stroke-linejoin="round" fill="none"></path>
<path d="M12.4548 16.8742V10H16.8332C17.5235 10 18.0832 10.5596 18.0832 11.25V16.875C18.0832 17.5654 17.5235 18.125 16.8332 18.125H13.7082" stroke="#111111" stroke-width="1.5px" stroke-linecap="round" stroke-linejoin="round" fill="none"></path>
<path fill-rule="evenodd" clip-rule="evenodd" d="M12.4548 19.3733C13.1452 19.3733 13.7048 18.8136 13.7048 18.1233C13.7048 17.4329 13.1452 16.8733 12.4548 16.8733C11.7645 16.8733 11.2048 17.4329 11.2048 18.1233C11.2048 18.8136 11.7645 19.3733 12.4548 19.3733Z" stroke="#111111" stroke-width="1.5px" stroke-linecap="round" stroke-linejoin="round" fill="none"></path>
<path d="M12.4548 4.99829V9.99829" stroke="#111111" stroke-width="1.5px" stroke-linecap="round" stroke-linejoin="round" fill="none"></path>
</svg></defs><use href="#svg1712979525_1444"></use></svg>