<svg width="24" height="24" fill="none" xmlns="http://www.w3.org/2000/svg" id="svg-658590604_833"><path clip-rule="evenodd" d="M16.5 21.25h-9V11.5l3.876-5.814a.75.75 0 0 1 1.248 0L16.5 11.5v9.75Z" stroke="#000" stroke-width="1.5" stroke-linecap="round" stroke-linejoin="round"></path><path d="M12 11.875a.375.375 0 1 1 0 .75.375.375 0 0 1 0-.75" stroke="#000" stroke-width="1.5" stroke-linecap="round" stroke-linejoin="round"></path><path clip-rule="evenodd" d="M13.5 21.25h-3v-3a1.5 1.5 0 0 1 3 0v3Zm-12-13.5h6v13.5h-5a1 1 0 0 1-1-1V7.75Zm15 0h6v12.5a1 1 0 0 1-1 1h-5V7.75Z" stroke="#000" stroke-width="1.5" stroke-linecap="round" stroke-linejoin="round"></path><path d="m2.25 7.75 2.25-4.5 2.25 4.5m10.5 0 2.25-4.5 2.25 4.5M4.5 12.25v1.5m15-1.5v1.5m-18 0h6m9 0h6m-18 3v1.5m15-1.5v1.5" stroke="#000" stroke-width="1.5" stroke-linecap="round" stroke-linejoin="round"></path></svg>